<?xml version="1.0" encoding="utf-8"?>
<!-- Generator: Adobe Illustrator 26.5.0, SVG Export Plug-In . SVG Version: 6.00 Build 0)  -->
<svg version="1.1" id="Layer_1" xmlns="http://www.w3.org/2000/svg" xmlns:xlink="http://www.w3.org/1999/xlink" x="0px" y="0px"
	 viewBox="0 0 1080 1080" style="enable-background:new 0 0 1080 1080;" xml:space="preserve">
<style type="text/css">
	.st0{fill:#FFFFFF;}
	.st1{fill:#095DA9;}
	.st2{fill:#020203;}
	.st3{opacity:0.3;}
	.st4{fill:#020303;}
	.st5{fill:none;stroke:#020303;stroke-width:4.4098;stroke-miterlimit:10;}
	.st6{fill:none;stroke:#095DA9;stroke-width:4.4098;stroke-miterlimit:10;}
	.st7{fill:none;stroke:#010202;stroke-width:4.4098;stroke-miterlimit:10;}
</style>
<g>
	<g>
		<g>
			<circle class="st0" cx="540" cy="540" r="537.79"/>
		</g>
		<g>
			<path class="st1" d="M540,1080C242.24,1080,0,837.76,0,540S242.24,0,540,0s540,242.24,540,540S837.76,1080,540,1080z M540,4.41
				C244.68,4.41,4.41,244.68,4.41,540S244.68,1075.59,540,1075.59S1075.59,835.32,1075.59,540S835.32,4.41,540,4.41z"/>
		</g>
	</g>
	<g>
		<g>
			<path class="st1" d="M62.75,588.04c-1.57,0-2.85-1.28-2.85-2.85V471.87c0-1.57,1.28-2.85,2.85-2.85c1.57,0,2.85,1.28,2.85,2.85
				v113.32C65.6,586.76,64.32,588.04,62.75,588.04z"/>
		</g>
		<g>
			<path class="st1" d="M95.67,714.02c-1.57,0-2.85-1.28-2.85-2.85V365.36c0-1.57,1.28-2.85,2.85-2.85s2.85,1.28,2.85,2.85v345.82
				C98.52,712.75,97.24,714.02,95.67,714.02z"/>
		</g>
		<g>
			<path class="st1" d="M128.59,781.75c-1.57,0-2.85-1.28-2.85-2.85V297.84c0-1.57,1.28-2.85,2.85-2.85c1.57,0,2.85,1.28,2.85,2.85
				V778.9C131.44,780.48,130.17,781.75,128.59,781.75z"/>
		</g>
		<g>
			<path class="st1" d="M161.52,833.54c-1.57,0-2.85-1.28-2.85-2.85V253.63c0-1.57,1.28-2.85,2.85-2.85c1.57,0,2.85,1.28,2.85,2.85
				v577.07C164.36,832.27,163.09,833.54,161.52,833.54z"/>
		</g>
		<g>
			<path class="st1" d="M194.44,871.97c-1.57,0-2.85-1.28-2.85-2.85V211.49c0-1.57,1.28-2.85,2.85-2.85c1.57,0,2.85,1.28,2.85,2.85
				v657.64C197.29,870.7,196.01,871.97,194.44,871.97z"/>
		</g>
		<g>
			<path class="st1" d="M227.36,903.66c-1.57,0-2.85-1.27-2.85-2.85V179.26c0-1.57,1.28-2.85,2.85-2.85c1.57,0,2.85,1.28,2.85,2.85
				v721.56C230.21,902.39,228.93,903.66,227.36,903.66z"/>
		</g>
		<g>
			<path class="st1" d="M260.28,927.74c-1.57,0-2.85-1.27-2.85-2.85V153.13c0-1.57,1.28-2.85,2.85-2.85c1.57,0,2.85,1.28,2.85,2.85
				v771.77C263.13,926.47,261.85,927.74,260.28,927.74z"/>
		</g>
		<g>
			<path class="st1" d="M293.2,951.38c-1.57,0-2.85-1.28-2.85-2.85V131.28c0-1.57,1.28-2.85,2.85-2.85c1.57,0,2.85,1.28,2.85,2.85
				v817.25C296.05,950.1,294.78,951.38,293.2,951.38z"/>
		</g>
		<g>
			<path class="st1" d="M326.12,969.58c-1.57,0-2.85-1.28-2.85-2.85V113.08c0-1.57,1.28-2.85,2.85-2.85s2.85,1.28,2.85,2.85v853.65
				C328.97,968.3,327.7,969.58,326.12,969.58z"/>
		</g>
		<g>
			<path class="st1" d="M359.05,984.58c-1.57,0-2.85-1.28-2.85-2.85V98.08c0-1.57,1.28-2.85,2.85-2.85s2.85,1.28,2.85,2.85v883.65
				C361.89,983.3,360.62,984.58,359.05,984.58z"/>
		</g>
		<g>
			<path class="st1" d="M391.97,996.68c-1.57,0-2.85-1.27-2.85-2.85V85.98c0-1.57,1.28-2.85,2.85-2.85c1.57,0,2.85,1.28,2.85,2.85
				v907.86C394.82,995.41,393.54,996.68,391.97,996.68z"/>
		</g>
		<g>
			<path class="st1" d="M424.89,1006.11c-1.57,0-2.85-1.28-2.85-2.85V76.55c0-1.57,1.28-2.85,2.85-2.85c1.57,0,2.85,1.28,2.85,2.85
				v926.72C427.74,1004.84,426.46,1006.11,424.89,1006.11z"/>
		</g>
		<g>
			<path class="st1" d="M457.81,1013.05c-1.57,0-2.85-1.28-2.85-2.85V69.62c0-1.57,1.28-2.85,2.85-2.85s2.85,1.28,2.85,2.85v940.58
				C460.66,1011.77,459.38,1013.05,457.81,1013.05z"/>
		</g>
		<g>
			<path class="st1" d="M490.73,1019.83c-1.57,0-2.85-1.28-2.85-2.85V62.54c0-1.57,1.28-2.85,2.85-2.85s2.85,1.28,2.85,2.85v954.45
				C493.58,1018.56,492.31,1019.83,490.73,1019.83z"/>
		</g>
		<g>
			<path class="st1" d="M523.66,1019.83c-1.57,0-2.85-1.28-2.85-2.85V62.54c0-1.57,1.28-2.85,2.85-2.85c1.57,0,2.85,1.28,2.85,2.85
				v954.45C526.5,1018.56,525.23,1019.83,523.66,1019.83z"/>
		</g>
		<g>
			<path class="st1" d="M556.58,1019.83c-1.57,0-2.85-1.28-2.85-2.85V62.54c0-1.57,1.28-2.85,2.85-2.85s2.85,1.28,2.85,2.85v954.45
				C559.43,1018.56,558.15,1019.83,556.58,1019.83z"/>
		</g>
		<g>
			<path class="st1" d="M589.5,1019.83c-1.57,0-2.85-1.28-2.85-2.85V62.54c0-1.57,1.28-2.85,2.85-2.85s2.85,1.28,2.85,2.85v954.45
				C592.35,1018.56,591.07,1019.83,589.5,1019.83z"/>
		</g>
		<g>
			<path class="st1" d="M622.42,1013.05c-1.57,0-2.85-1.28-2.85-2.85V69.62c0-1.57,1.28-2.85,2.85-2.85s2.85,1.28,2.85,2.85v940.58
				C625.27,1011.77,623.99,1013.05,622.42,1013.05z"/>
		</g>
		<g>
			<path class="st1" d="M655.34,1006.11c-1.57,0-2.85-1.28-2.85-2.85V76.55c0-1.57,1.28-2.85,2.85-2.85s2.85,1.28,2.85,2.85v926.72
				C658.19,1004.84,656.92,1006.11,655.34,1006.11z"/>
		</g>
		<g>
			<path class="st1" d="M688.26,996.68c-1.57,0-2.85-1.28-2.85-2.85V85.98c0-1.57,1.28-2.85,2.85-2.85s2.85,1.28,2.85,2.85v907.86
				C691.11,995.41,689.84,996.68,688.26,996.68z"/>
		</g>
		<g>
			<path class="st1" d="M721.19,984.58c-1.57,0-2.85-1.28-2.85-2.85V98.08c0-1.57,1.28-2.85,2.85-2.85s2.85,1.28,2.85,2.85v883.65
				C724.03,983.3,722.76,984.58,721.19,984.58z"/>
		</g>
		<g>
			<path class="st1" d="M754.11,969.58c-1.57,0-2.85-1.28-2.85-2.85V113.08c0-1.57,1.28-2.85,2.85-2.85c1.57,0,2.85,1.28,2.85,2.85
				v853.65C756.96,968.3,755.68,969.58,754.11,969.58z"/>
		</g>
		<g>
			<path class="st1" d="M787.03,951.38c-1.57,0-2.85-1.28-2.85-2.85V131.28c0-1.57,1.28-2.85,2.85-2.85s2.85,1.28,2.85,2.85v817.25
				C789.88,950.1,788.6,951.38,787.03,951.38z"/>
		</g>
		<g>
			<path class="st1" d="M819.95,929.53c-1.57,0-2.85-1.28-2.85-2.85V153.13c0-1.57,1.28-2.85,2.85-2.85s2.85,1.28,2.85,2.85v773.56
				C822.8,928.26,821.52,929.53,819.95,929.53z"/>
		</g>
		<g>
			<path class="st1" d="M852.87,903.66c-1.57,0-2.85-1.28-2.85-2.85V179.26c0-1.57,1.28-2.85,2.85-2.85c1.57,0,2.85,1.28,2.85,2.85
				v721.56C855.72,902.39,854.45,903.66,852.87,903.66z"/>
		</g>
		<g>
			<path class="st1" d="M885.79,871.97c-1.57,0-2.85-1.28-2.85-2.85V211.49c0-1.57,1.28-2.85,2.85-2.85c1.57,0,2.85,1.28,2.85,2.85
				v657.64C888.64,870.7,887.37,871.97,885.79,871.97z"/>
		</g>
		<g>
			<path class="st1" d="M918.72,833.54c-1.57,0-2.85-1.27-2.85-2.85V249.11c0-1.57,1.28-2.85,2.85-2.85c1.57,0,2.85,1.28,2.85,2.85
				v581.58C921.56,832.27,920.29,833.54,918.72,833.54z"/>
		</g>
		<g>
			<path class="st1" d="M951.64,784.82c-1.57,0-2.85-1.28-2.85-2.85V297.84c0-1.57,1.28-2.85,2.85-2.85s2.85,1.28,2.85,2.85v484.14
				C954.49,783.55,953.21,784.82,951.64,784.82z"/>
		</g>
		<g>
			<path class="st1" d="M984.56,717.3c-1.57,0-2.85-1.28-2.85-2.85v-349.1c0-1.57,1.28-2.85,2.85-2.85s2.85,1.28,2.85,2.85v349.1
				C987.41,716.03,986.13,717.3,984.56,717.3z"/>
		</g>
		<g>
			<path class="st1" d="M1017.48,588.04c-1.57,0-2.85-1.28-2.85-2.85V471.87c0-1.57,1.28-2.85,2.85-2.85s2.85,1.28,2.85,2.85v113.32
				C1020.33,586.76,1019.06,588.04,1017.48,588.04z"/>
		</g>
	</g>
	<g>
		<path class="st1" d="M267,276.58h-0.02c-2.49,0-4.51-2.02-4.51-4.51v-74.25c0-2.49,2.02-4.51,4.51-4.51H267
			c2.49,0,4.51,2.02,4.51,4.51v74.25C271.51,274.56,269.49,276.58,267,276.58z"/>
	</g>
	<g>
		<path class="st1" d="M300.34,326.45h-0.02c-2.5,0-4.53-2.03-4.53-4.53V140.73c0-2.5,2.03-4.53,4.53-4.53h0.02
			c2.5,0,4.53,2.03,4.53,4.53v181.19C304.87,324.42,302.84,326.45,300.34,326.45z"/>
	</g>
	<g>
		<path class="st1" d="M333.21,320.32h-0.02c-2.5,0-4.53-2.03-4.53-4.53V140.73c0-2.5,2.03-4.53,4.53-4.53h0.02
			c2.5,0,4.53,2.03,4.53,4.53v175.06C337.74,318.29,335.72,320.32,333.21,320.32z"/>
	</g>
	<g>
		<path class="st1" d="M366.09,290.97h-0.02c-2.5,0-4.53-2.03-4.53-4.53V138.45c0-2.5,2.03-4.53,4.53-4.53h0.02
			c2.5,0,4.53,2.03,4.53,4.53v147.99C370.62,288.94,368.59,290.97,366.09,290.97z"/>
	</g>
	<g>
		<path class="st1" d="M399.24,293.23h-0.03c-2.8,0-5.06-2.27-5.06-5.06V114.64c0-2.8,2.27-5.06,5.06-5.06h0.03
			c2.8,0,5.06,2.27,5.06,5.06v173.53C404.3,290.97,402.04,293.23,399.24,293.23z"/>
	</g>
	<g>
		<path class="st1" d="M431.98,327.53h-0.02c-2.45,0-4.43-1.98-4.43-4.43V152.17c0-2.45,1.98-4.43,4.43-4.43h0.02
			c2.45,0,4.43,1.98,4.43,4.43V323.1C436.41,325.55,434.42,327.53,431.98,327.53z"/>
	</g>
	<g>
		<path class="st1" d="M464.86,434.13h-0.03c-2.55,0-4.61-2.06-4.61-4.61V141.22c0-2.55,2.06-4.61,4.61-4.61h0.03
			c2.55,0,4.61,2.06,4.61,4.61v288.29C469.47,432.06,467.41,434.13,464.86,434.13z"/>
	</g>
	<g>
		<path class="st1" d="M498.03,490.39H498c-2.77,0-5.02-2.25-5.02-5.02V123.84c0-2.77,2.25-5.02,5.02-5.02h0.03
			c2.77,0,5.02,2.25,5.02,5.02v361.53C503.05,488.14,500.8,490.39,498.03,490.39z"/>
	</g>
	<g>
		<path class="st1" d="M531.09,531.28h-0.03c-3,0-5.43-2.43-5.43-5.43V106.71c0-3,2.43-5.43,5.43-5.43h0.03c3,0,5.43,2.43,5.43,5.43
			v419.13C536.52,528.84,534.09,531.28,531.09,531.28z"/>
	</g>
	<g>
		<path class="st1" d="M564.21,583.09h-0.03c-2.64,0-4.79-2.14-4.79-4.79V119.98c0-2.64,2.14-4.79,4.79-4.79h0.03
			c2.64,0,4.79,2.14,4.79,4.79v458.33C569,580.95,566.85,583.09,564.21,583.09z"/>
	</g>
	<g>
		<path class="st1" d="M596.7,376.89h-0.03c-2.55,0-4.61-2.06-4.61-4.61V105.94c0-2.55,2.06-4.61,4.61-4.61h0.03
			c2.55,0,4.61,2.06,4.61,4.61v266.34C601.31,374.82,599.24,376.89,596.7,376.89z"/>
	</g>
	<g>
		<path class="st1" d="M596.86,619.17h-0.03c-2.55,0-4.61-2.06-4.61-4.61V369.32c0-2.55,2.06-4.61,4.61-4.61h0.03
			c2.55,0,4.61,2.06,4.61,4.61v245.24C601.47,617.11,599.41,619.17,596.86,619.17z"/>
	</g>
	<g>
		<path class="st1" d="M629.86,249.58h-0.03c-2.71,0-4.9-2.19-4.9-4.9V111.11c0-2.71,2.19-4.9,4.9-4.9h0.03c2.71,0,4.9,2.19,4.9,4.9
			v133.56C634.76,247.38,632.57,249.58,629.86,249.58z"/>
	</g>
	<g>
		<path class="st1" d="M662.79,237.62h-0.03c-2.74,0-4.96-2.22-4.96-4.96v-75.14c0-2.74,2.22-4.96,4.96-4.96h0.03
			c2.74,0,4.96,2.22,4.96,4.96v75.14C667.75,235.4,665.53,237.62,662.79,237.62z"/>
	</g>
	<g>
		<path class="st1" d="M695.52,197.82h-0.03c-2.55,0-4.61-2.07-4.61-4.61v-25.42c0-2.55,2.07-4.61,4.61-4.61h0.03
			c2.55,0,4.61,2.07,4.61,4.61v25.42C700.13,195.76,698.07,197.82,695.52,197.82z"/>
	</g>
	<g>
		<path class="st1" d="M695.42,247.55h-0.02c-2.49,0-4.51-2.02-4.51-4.51v-27c0-2.49,2.02-4.51,4.51-4.51h0.02
			c2.49,0,4.51,2.02,4.51,4.51v27C699.93,245.53,697.91,247.55,695.42,247.55z"/>
	</g>
	<g>
		<path class="st1" d="M629.52,635.84h-0.03c-2.55,0-4.61-2.06-4.61-4.61V406.12c0-2.55,2.06-4.61,4.61-4.61h0.03
			c2.55,0,4.61,2.06,4.61,4.61v225.11C634.14,633.77,632.07,635.84,629.52,635.84z"/>
	</g>
	<g>
		<path class="st1" d="M695.81,743.81h-0.03c-2.57,0-4.66-2.09-4.66-4.66V567.71c0-2.57,2.09-4.66,4.66-4.66h0.03
			c2.57,0,4.66,2.09,4.66,4.66v171.44C700.47,741.72,698.39,743.81,695.81,743.81z"/>
	</g>
	<g>
		<path class="st1" d="M728.7,877.32h-0.03c-2.57,0-4.66-2.09-4.66-4.66V589.03c0-2.57,2.09-4.66,4.66-4.66h0.03
			c2.57,0,4.66,2.09,4.66,4.66v283.64C733.36,875.24,731.28,877.32,728.7,877.32z"/>
	</g>
	<g>
		<path class="st1" d="M761.27,836.74h-0.03c-2.57,0-4.66-2.09-4.66-4.66V588.88c0-2.57,2.09-4.66,4.66-4.66h0.03
			c2.57,0,4.66,2.09,4.66,4.66v243.19C765.93,834.65,763.85,836.74,761.27,836.74z"/>
	</g>
	<g>
		<path class="st1" d="M794.28,719.25h-0.03c-2.57,0-4.66-2.09-4.66-4.66v-52.28c0-2.57,2.09-4.66,4.66-4.66h0.03
			c2.57,0,4.66,2.09,4.66,4.66v52.28C798.94,717.16,796.86,719.25,794.28,719.25z"/>
	</g>
	<g>
		<path class="st1" d="M827.77,740h-0.03c-2.77,0-5.01-2.24-5.01-5.01v-38.7c0-2.77,2.24-5.01,5.01-5.01h0.03
			c2.77,0,5.01,2.24,5.01,5.01v38.7C832.79,737.75,830.54,740,827.77,740z"/>
	</g>
	<g>
		<path class="st1" d="M860.26,780.37h-0.03c-2.77,0-5.01-2.24-5.01-5.01v-58.29c0-2.77,2.24-5.01,5.01-5.01h0.03
			c2.77,0,5.01,2.24,5.01,5.01v58.29C865.27,778.13,863.03,780.37,860.26,780.37z"/>
	</g>
	<g>
		<path class="st1" d="M662.53,889.34h-0.03c-2.96,0-5.37-2.4-5.37-5.37v-10.43c0-2.96,2.4-5.37,5.37-5.37h0.03
			c2.96,0,5.37,2.4,5.37,5.37v10.43C667.9,886.94,665.5,889.34,662.53,889.34z"/>
	</g>
	<g>
		<path class="st1" d="M695.82,901.25h-0.03c-2.77,0-5.01-2.24-5.01-5.01v-29.76c0-2.77,2.24-5.01,5.01-5.01h0.03
			c2.77,0,5.01,2.24,5.01,5.01v29.76C700.83,899,698.58,901.25,695.82,901.25z"/>
	</g>
	<g>
		<path class="st1" d="M629.86,965.83h-0.03c-2.55,0-4.61-2.06-4.61-4.61v-88.38c0-2.55,2.06-4.61,4.61-4.61h0.03
			c2.55,0,4.61,2.06,4.61,4.61v88.38C634.48,963.76,632.41,965.83,629.86,965.83z"/>
	</g>
	<g>
		<path class="st1" d="M596.83,975.15h-0.03c-2.57,0-4.66-2.08-4.66-4.66v-95.33c0-2.57,2.08-4.66,4.66-4.66h0.03
			c2.57,0,4.66,2.08,4.66,4.66v95.33C601.49,973.06,599.4,975.15,596.83,975.15z"/>
	</g>
	<g>
		<path class="st1" d="M563.73,935.1h-0.03c-2.63,0-4.77-2.13-4.77-4.77v-60.5c0-2.63,2.13-4.77,4.77-4.77h0.03
			c2.63,0,4.77,2.13,4.77,4.77v60.5C568.5,932.97,566.36,935.1,563.73,935.1z"/>
	</g>
	<g>
		<path class="st1" d="M531.05,909.3h-0.03c-2.66,0-4.82-2.16-4.82-4.82v-57.6c0-2.66,2.16-4.82,4.82-4.82h0.03
			c2.66,0,4.82,2.16,4.82,4.82v57.6C535.88,907.14,533.72,909.3,531.05,909.3z"/>
	</g>
	<g>
		<path class="st1" d="M498.18,883.73h-0.03c-2.8,0-5.08-2.27-5.08-5.08v-36.84c0-2.8,2.27-5.08,5.08-5.08h0.03
			c2.8,0,5.08,2.27,5.08,5.08v36.84C503.26,881.46,500.99,883.73,498.18,883.73z"/>
	</g>
	<g>
		<path class="st1" d="M366.31,704.84h-0.08c-2.55,0-4.61-2.06-4.61-4.61V573.87c0-2.55,2.06-4.61,4.61-4.61h0.08
			c2.55,0,4.61,2.06,4.61,4.61v126.35C370.92,702.77,368.85,704.84,366.31,704.84z"/>
	</g>
	<g>
		<path class="st1" d="M333.46,735.49h-0.03c-2.55,0-4.61-2.06-4.61-4.61V558.19c0-2.55,2.06-4.61,4.61-4.61h0.03
			c2.55,0,4.61,2.06,4.61,4.61v172.69C338.07,733.42,336,735.49,333.46,735.49z"/>
	</g>
	<g>
		<path class="st1" d="M300.34,733h-0.03c-2.55,0-4.61-2.06-4.61-4.61V573.63c0-2.55,2.06-4.61,4.61-4.61h0.03
			c2.55,0,4.61,2.06,4.61,4.61v154.76C304.95,730.94,302.89,733,300.34,733z"/>
	</g>
	<g>
		<g>
			<path class="st1" d="M139.87,406.85c26.81-27.4,60.93-41.11,102.34-41.11c55.42,0,95.93,18.37,121.56,55.11
				c14.15,20.63,21.75,41.33,22.79,62.11h-69.57c-4.43-15.96-10.11-28.01-17.04-36.14c-12.39-14.46-30.76-21.68-55.09-21.68
				c-24.79,0-44.33,10.2-58.64,30.61c-14.31,20.41-21.46,49.28-21.46,86.62c0,37.35,7.55,65.31,22.65,83.91
				c15.1,18.6,34.28,27.89,57.55,27.89c23.86,0,42.05-7.98,54.58-23.94c6.92-8.58,12.67-21.46,17.23-38.62h69.12
				c-5.96,36.29-21.19,65.8-45.7,88.54c-24.51,22.74-55.9,34.11-94.18,34.11c-47.37,0-84.62-15.36-111.73-46.08
				C107.17,637.31,93.61,595,93.61,541.24C93.61,483.12,109.03,438.32,139.87,406.85z"/>
		</g>
		<g>
			<path class="st1" d="M394.07,373.54H467l132.16,232.14V373.54h64.82v332.93h-69.55L458.89,470.24v236.23h-64.82V373.54z"/>
		</g>
		<g>
			<path class="st1" d="M789.89,373.54h78.71l117.79,332.93h-75.44l-21.97-68.44h-122.6l-22.57,68.44h-72.77L789.89,373.54z
				 M785.3,580.66h85.26l-42.06-131L785.3,580.66z"/>
		</g>
	</g>
</g>
</svg>
